<svg width="606" height="541" viewBox="0 0 606 541" fill="none" xmlns="http://www.w3.org/2000/svg">
<path d="M521.715 491.264H105.087C96.8587 491.254 88.9699 487.981 83.1516 482.163C77.3332 476.344 74.0605 468.455 74.0513 460.227V96.4083C74.0608 88.18 77.3337 80.2914 83.152 74.4731C88.9703 68.6548 96.8589 65.3819 105.087 65.3723H521.715C529.943 65.3815 537.832 68.6543 543.651 74.4726C549.469 80.291 552.742 88.1797 552.752 96.4083V460.227C552.743 468.455 549.47 476.345 543.651 482.163C537.833 487.982 529.943 491.255 521.715 491.264Z" fill="white"/>
<path d="M425.064 163.849H216.873C211.177 163.849 206.56 168.467 206.56 174.162V382.353C206.56 388.049 211.177 392.666 216.873 392.666H425.064C430.76 392.666 435.377 388.049 435.377 382.353V174.162C435.377 168.467 430.76 163.849 425.064 163.849Z" fill="#406752"/>
<path d="M521.715 492.242H105.087C96.5992 492.232 88.4617 488.856 82.4599 482.854C76.4581 476.852 73.0821 468.715 73.0728 460.227V96.4083C73.0825 87.9206 76.4586 79.7834 82.4603 73.7817C88.4621 67.7801 96.5994 64.4041 105.087 64.3946H521.715C530.202 64.404 538.34 67.7799 544.342 73.7817C550.344 79.7835 553.72 87.9211 553.73 96.409V460.227C553.72 468.715 550.344 476.852 544.342 482.854C538.34 488.856 530.203 492.232 521.715 492.242ZM105.087 66.3502C97.118 66.3592 89.4778 69.529 83.8428 75.164C78.2078 80.799 75.038 88.4392 75.029 96.4083V460.227C75.0378 468.196 78.2075 475.836 83.8425 481.472C89.4776 487.107 97.1178 490.277 105.087 490.286H521.715C529.684 490.277 537.325 487.108 542.961 481.472C548.596 475.837 551.766 468.196 551.775 460.227V96.4083C551.766 88.439 548.596 80.7988 542.961 75.1637C537.326 69.5287 529.685 66.359 521.716 66.3502H105.087Z" fill="#090814"/>
<path d="M76.3276 245.85C77.8084 245.514 79.3412 245.477 80.8364 245.741C82.3316 246.005 83.7592 246.565 85.0356 247.387C86.3122 248.209 87.4124 249.278 88.271 250.53C89.0222 251.626 89.5757 252.844 89.9077 254.127L90.0366 254.681L106.183 332.903V332.904C106.782 335.851 106.199 338.916 104.559 341.437C103.022 343.799 100.671 345.506 97.9634 346.243L97.4175 346.378L29.7144 361.054C28.9104 361.229 28.0899 361.317 27.2671 361.318C24.6136 361.308 22.046 360.378 20.0044 358.683C18.0902 357.094 16.7498 354.926 16.1802 352.514L16.0767 352.027L1.26123 274.156L1.26025 274.154L1.16846 273.608C0.774423 270.871 1.39029 268.076 2.9126 265.753C4.43493 263.43 6.75098 261.749 9.41748 261.018L9.95557 260.884H9.95752L76.3276 245.85Z" fill="white" stroke="black"/>
<path d="M75.2888 275.351C75.6661 275.281 76.0539 275.286 76.4294 275.365C76.8048 275.444 77.1608 275.597 77.4773 275.813C77.7938 276.03 78.0647 276.307 78.2742 276.629C78.4836 276.95 78.6285 277.31 78.699 277.687C78.7694 278.065 78.7646 278.452 78.6853 278.828C78.606 279.204 78.454 279.56 78.2371 279.877C78.0201 280.193 77.7422 280.464 77.4207 280.674C77.1794 280.831 76.9168 280.951 76.6414 281.031L76.3621 281.098L22.7058 291.122H22.7048C22.527 291.156 22.3458 291.172 22.1648 291.172C21.4366 291.171 20.7348 290.899 20.197 290.408C19.6592 289.917 19.3244 289.243 19.2576 288.517C19.1908 287.792 19.3973 287.067 19.8367 286.486C20.2212 285.978 20.7594 285.611 21.3679 285.437L21.6326 285.376L75.2888 275.351Z" fill="#406752" stroke="black"/>
<path d="M76.8948 293.915C77.269 293.823 77.6576 293.807 78.0383 293.866C78.4191 293.925 78.7847 294.058 79.1135 294.259C79.4424 294.46 79.7289 294.725 79.9553 295.037C80.1816 295.348 80.3436 295.702 80.4329 296.077C80.5221 296.452 80.5365 296.841 80.4749 297.221C80.4133 297.602 80.2774 297.966 80.0745 298.294C79.8714 298.621 79.6055 298.906 79.2922 299.13C79.0572 299.299 78.7986 299.431 78.5256 299.523L78.2483 299.602H78.2454L27.7356 311.629C27.5121 311.682 27.284 311.708 27.0559 311.709C26.34 311.708 25.6492 311.445 25.1145 310.969C24.5797 310.493 24.2377 309.837 24.1545 309.126C24.0714 308.414 24.2527 307.697 24.6633 307.11C25.0226 306.597 25.5357 306.214 26.1252 306.015L26.3821 305.942L76.8918 293.916L76.8948 293.915Z" fill="#406752" stroke="black"/>
<path d="M64.3293 318.501C65.0838 318.349 65.8673 318.502 66.51 318.925C67.1529 319.349 67.6035 320.008 67.7629 320.761C67.9223 321.514 67.7786 322.3 67.3625 322.947C66.9463 323.594 66.2905 324.052 65.5393 324.219L31.0872 331.515C30.8866 331.558 30.6818 331.578 30.4768 331.579C29.7553 331.577 29.0602 331.309 28.5247 330.826C27.9888 330.342 27.6503 329.678 27.5754 328.96C27.5006 328.242 27.6947 327.521 28.1194 326.937C28.4909 326.426 29.0159 326.051 29.6145 325.865L29.8752 325.797L64.3293 318.501Z" fill="#406752" stroke="black"/>
<path d="M510.422 2.62988C512.68 1.01211 515.446 0.279403 518.197 0.557617L518.747 0.626953H518.748L586.072 10.5537V10.5527C587.574 10.7747 589.016 11.2945 590.314 12.0801C591.613 12.8657 592.743 13.9019 593.637 15.1289C594.53 16.356 595.17 17.7493 595.52 19.2266C595.825 20.5191 595.903 21.8535 595.75 23.1699L595.671 23.7334L582.508 102.517C582.054 105.18 580.674 107.597 578.612 109.343C576.55 111.088 573.937 112.049 571.235 112.057C570.793 112.056 570.351 112.031 569.912 111.979L569.473 111.919L501.035 101.183C499.53 100.946 498.086 100.41 496.791 99.6074C495.496 98.8046 494.374 97.7506 493.492 96.5078C492.61 95.2649 491.985 93.8579 491.655 92.3701C491.367 91.0681 491.309 89.7266 491.482 88.4072L491.57 87.8438L505.849 9.86914V9.86816C506.373 6.95231 508.014 4.35543 510.422 2.62988Z" fill="white" stroke="black"/>
<path d="M573.927 43.9893C573.716 43.9892 573.504 43.9694 573.296 43.93L519.636 33.9207C519.194 33.8383 518.773 33.6696 518.396 33.4244C518.019 33.1792 517.695 32.8622 517.441 32.4915C516.927 31.7429 516.732 30.821 516.899 29.9286C517.065 29.0363 517.579 28.2466 518.328 27.7333C519.077 27.22 519.999 27.0251 520.891 27.1915L574.551 37.2008C575.39 37.3572 576.14 37.821 576.654 38.5014C577.169 39.1819 577.411 40.0299 577.333 40.8793C577.255 41.7288 576.862 42.5185 576.232 43.0937C575.602 43.669 574.781 43.9884 573.927 43.9893Z" fill="#406752"/>
<path d="M568.866 61.9027C568.709 61.903 568.553 61.8925 568.398 61.8711L516.951 54.8648C516.052 54.7422 515.238 54.2674 514.689 53.5447C514.139 52.822 513.9 51.9108 514.022 51.0113C514.145 50.1119 514.62 49.298 515.342 48.7486C516.065 48.1993 516.976 47.9596 517.876 48.0821L569.323 55.0884C570.183 55.2049 570.966 55.6436 571.515 56.3158C572.064 56.9881 572.337 57.8436 572.278 58.7094C572.22 59.5753 571.835 60.3867 571.202 60.9795C570.568 61.5723 569.733 61.9023 568.866 61.9027Z" fill="#406752"/>
<path d="M548.212 80.2912C548.028 80.2907 547.843 80.2756 547.661 80.2461L512.89 74.6191C511.994 74.4738 511.192 73.9785 510.661 73.2421C510.13 72.5057 509.914 71.5886 510.059 70.6925C510.204 69.7964 510.7 68.9947 511.436 68.4638C512.172 67.9329 513.09 67.7163 513.986 67.8616L548.757 73.4886C549.606 73.6258 550.373 74.0777 550.904 74.7544C551.435 75.4311 551.692 76.283 551.623 77.1405C551.555 77.998 551.166 78.7983 550.534 79.3822C549.902 79.966 549.074 80.2905 548.213 80.2912H548.212Z" fill="#406752"/>
<path d="M362.538 121.455C362.538 124.482 362.267 127.504 361.727 130.483C360.753 134.288 359.277 137.948 357.339 141.365C353.626 147.959 349.645 150.421 346.374 156.878C345.811 157.314 345.232 157.705 344.644 158.088C343.469 158.847 343.34 162.561 342.091 163.2C342.083 163.209 342.074 163.209 342.065 163.218C341.681 163.871 341.46 164.608 341.421 165.365V165.383C340.791 169.072 340.246 176.577 339.616 181.016C339.532 181.553 339.454 182.048 339.369 182.481C339.156 183.657 338.936 184.407 338.688 184.5C335.646 185.675 334.351 184.065 331.018 184.5C329.229 184.739 320.096 186.204 318.238 186.204C312.965 186.204 310.111 184.407 305.843 182.481C305.544 182.353 305.247 182.217 304.931 182.081C304.815 182.038 304.719 181.987 304.608 181.945C303.384 181.426 302.224 168.323 301.073 163.363C301.07 163.36 301.067 163.356 301.066 163.351C301.065 163.347 301.064 163.342 301.065 163.338C300.826 162.306 300.588 161.633 300.349 161.497L300.17 161.396C299.411 160.96 298.671 160.483 297.946 159.989C293.556 152.679 285.08 145.724 280.895 134.354C279.694 130.158 279.072 125.819 279.047 121.455C279.025 115.959 280.089 110.513 282.177 105.429C284.265 100.345 287.337 95.7241 291.216 91.8302C295.094 87.9364 299.703 84.8467 304.779 82.7385C309.854 80.6303 315.296 79.5451 320.792 79.5451C326.288 79.5451 331.73 80.6303 336.806 82.7385C341.881 84.8467 346.49 87.9364 350.369 91.8302C354.248 95.7241 357.319 100.345 359.407 105.429C361.496 110.513 362.56 115.959 362.538 121.455Z" fill="#E6E6E6"/>
<path d="M361.728 130.487C360.754 134.292 359.278 137.95 357.34 141.367C353.627 147.961 349.647 150.423 346.375 156.88C344.2 161.182 342.343 167.258 341.076 177.5C340.999 178.105 341.16 178.795 341.076 179.392C340.883 180.712 341.119 180.474 340.317 181.667C339.951 181.871 339.729 181.582 339.608 181.022C339.419 179.604 339.402 178.168 339.557 176.746C339.787 172.906 340.409 169.101 341.414 165.389V165.371C341.618 164.63 341.84 163.914 342.058 163.225C346.003 151.212 353.279 145.768 356.576 139.481C373.895 106.525 341.889 69.7398 306.635 82.5342C304.744 83.2246 304.846 83.6248 304.744 83.6758C302.095 84.8256 299.94 85.329 297.367 87.0751C281.747 97.7026 276.141 118.737 283.187 136.066C287.002 145.446 294.995 150.737 300.166 161.397C300.475 162.016 300.774 162.663 301.061 163.339C301.06 163.344 301.061 163.348 301.062 163.353C301.063 163.357 301.066 163.361 301.069 163.365C303.499 169.312 304.808 175.658 304.929 182.082C304.938 182.198 304.947 182.304 304.947 182.414C305.253 182.44 305.551 182.457 305.841 182.482C310.366 182.874 313.296 183.599 314.813 182.814L316.482 182.985C317.036 183.758 326.344 182.814 327.83 182.797H328.213C331.933 182.891 335.655 182.786 339.364 182.481C339.552 182.463 339.747 182.438 339.935 182.413C340.184 182.47 340.401 182.62 340.542 182.832C340.683 183.044 340.737 183.303 340.694 183.554C340.81 184.627 339.032 187.737 338.428 188.087C336.682 189.109 308.226 189.629 305.509 187.713C304.716 187.158 304.136 186.351 303.862 185.424C303.588 184.497 303.637 183.504 304.001 182.608C303.95 182.369 302.905 181.688 302.859 181.466C302.349 178.566 302.953 171.218 299.46 162.928C299.027 161.912 298.52 160.93 297.943 159.989C293.555 152.68 285.079 145.727 280.895 134.349C278.7 128.241 277.932 121.712 278.65 115.262C280.158 99.245 293.973 83.4856 309.478 79.5055C341.928 71.1746 369.327 100.6 361.728 130.487Z" fill="#010001"/>
<path d="M338.836 188.97C341.536 191.539 340.093 192.408 338.836 195.402C337.249 195.045 310.083 196.782 306.298 195.402C305.693 195.157 305.16 194.762 304.75 194.254C304.34 193.746 304.065 193.143 303.952 192.5C303.838 191.857 303.89 191.196 304.102 190.579C304.314 189.961 304.679 189.408 305.163 188.97C316.353 190.22 327.646 190.22 338.836 188.97Z" fill="#010001"/>
<path d="M340.348 196.537C341.411 198.9 339.377 200.35 338.457 202.213L336.567 202.591L306.676 202.213C304.875 201.866 303.733 199.346 303.269 197.673C303.237 197.448 303.275 197.219 303.376 197.016C303.478 196.813 303.639 196.646 303.838 196.537L306.297 195.781C316.176 196.58 326.091 196.833 335.998 196.537C336.659 196.153 337.409 195.95 338.174 195.95C338.938 195.95 339.688 196.153 340.348 196.537Z" fill="#010001"/>
<path d="M315.825 165.755H315.042V152.941L300.596 122.351L301.305 122.016L315.825 152.761V165.755Z" fill="#0F0F10"/>
<path d="M320.574 57.3276C322.176 56.2377 322.202 69.0205 321.712 69.4356C319.842 71.009 320.038 57.695 320.574 57.3276Z" fill="#F2F2F2"/>
<path d="M307.708 58.464C308.969 57.6518 311.871 69.7546 311.683 70.3811C310.614 73.9455 307.118 58.8442 307.708 58.464Z" fill="#F2F2F2"/>
<path d="M333.437 58.464C334.937 58.0676 332.411 69.8358 332.114 70.3824C329.277 75.5427 332.623 58.6786 333.437 58.464Z" fill="#F2F2F2"/>
<path d="M328.037 165.775L327.393 151.536L327.407 151.482L335.075 119.96L335.836 120.145L328.182 151.613L328.819 165.74L328.037 165.775Z" fill="#0F0F10"/>
<path d="M582.373 442.642C584.33 442.589 586.241 443.237 587.762 444.47C589.188 445.625 590.182 447.223 590.592 449.004L590.666 449.362L590.667 449.365L605.206 526.097C605.425 527.254 605.395 528.445 605.116 529.589C604.838 530.733 604.318 531.805 603.591 532.732C602.865 533.66 601.948 534.421 600.904 534.965C599.989 535.441 598.995 535.742 597.973 535.853L597.533 535.888L524.206 539.873C524.055 539.881 523.905 539.885 523.759 539.885C521.842 539.878 519.987 539.209 518.508 537.989C517.029 536.77 516.017 535.076 515.645 533.195H515.646L500.305 454.071C500.077 452.89 500.109 451.673 500.4 450.506C500.69 449.338 501.232 448.248 501.988 447.312C502.743 446.375 503.695 445.615 504.775 445.084C505.72 444.62 506.743 444.341 507.79 444.261L508.24 444.238L582.37 442.642H582.373Z" fill="white" stroke="black"/>
<path d="M568.24 467.284C569.133 467.05 570.082 467.175 570.885 467.631C571.671 468.116 572.24 468.886 572.474 469.78C572.709 470.675 572.59 471.626 572.141 472.435L572.136 472.444L572.133 472.452L555.496 505.411C554.963 506.466 553.743 507.078 552.461 507.097C551.263 507.115 550.145 506.617 549.592 505.633L549.488 505.429C546.386 498.412 541.671 492.231 535.73 487.387L535.151 486.924L535.146 486.92L534.858 486.682C534.209 486.112 533.731 485.43 533.505 484.708C533.251 483.895 533.305 483.003 533.837 482.094L533.838 482.094C534.26 481.373 535.089 480.753 536.018 480.471C536.887 480.208 537.766 480.261 538.442 480.708L538.575 480.802L538.577 480.803C543.831 484.825 548.349 489.726 551.931 495.289L552.404 496.023L552.799 495.243L566.102 468.886C566.578 468.094 567.346 467.518 568.24 467.284Z" fill="#406752" stroke="black"/>
<path d="M396.557 309.857V310.208C395.801 309.323 395.03 308.445 394.267 307.567C393.946 307.201 393.626 306.834 393.305 306.468C391.947 304.926 390.58 303.39 389.207 301.858C387.825 300.332 386.444 298.805 385.047 297.286C384.711 296.92 384.375 296.554 384.032 296.187C383.757 295.879 383.458 295.594 383.139 295.332C382.817 295.064 382.446 294.86 382.048 294.729C381.589 294.602 381.105 294.597 380.643 294.714C380.116 294.836 379.613 295.027 379.102 295.187C378.575 295.363 378.056 295.531 377.529 295.699C376.476 296.042 375.43 296.386 374.377 296.729C374.364 296.734 374.351 296.737 374.337 296.737C374.323 296.737 374.31 296.734 374.297 296.729C374.284 296.723 374.273 296.716 374.263 296.706C374.254 296.696 374.246 296.685 374.241 296.672L374.24 296.668C374.234 296.654 374.231 296.638 374.232 296.622C374.232 296.607 374.236 296.592 374.244 296.578C374.251 296.564 374.261 296.552 374.274 296.542C374.286 296.533 374.301 296.526 374.316 296.523C374.576 296.439 374.843 296.355 375.11 296.271C376.171 295.92 377.224 295.577 378.285 295.233C378.811 295.058 379.338 294.89 379.865 294.722C380.353 294.536 380.869 294.433 381.391 294.417C382.244 294.478 383.043 294.853 383.635 295.47C383.963 295.775 384.261 296.096 384.559 296.424C384.91 296.806 385.261 297.187 385.612 297.569C387.024 299.111 388.426 300.657 389.817 302.209C391.214 303.766 392.598 305.326 393.969 306.888C394.069 307.002 394.168 307.117 394.267 307.231C395.038 308.101 395.793 308.979 396.557 309.857Z" fill="white"/>
<path d="M383.021 296.739C382.732 296.367 382.348 296.082 381.909 295.913L381.475 295.928C384.882 301.229 389.344 305.77 394.585 309.269C390.73 305.092 386.875 300.915 383.021 296.739Z" fill="white"/>
<path d="M454.111 351.826L436.821 259.246C436.525 257.72 435.719 256.339 434.536 255.331C433.353 254.323 431.862 253.746 430.308 253.697C430.169 253.693 430.029 253.693 429.889 253.697L418.11 254.119L416.843 254.166L410.964 254.377L409.696 254.42L405.915 254.557L329.669 257.294C329.554 257.301 329.436 257.301 329.321 257.298L312.235 256.94L305.912 256.81L305.71 256.807L301.044 256.707L260.379 255.862L249.598 255.635L244.281 255.527L243.008 255.499L236.946 255.374L235.675 255.346L229.473 255.219L228.203 255.191L221.389 255.048L220.32 255.026L214.243 254.899L213.283 254.88H213.143C211.529 254.887 209.97 255.464 208.741 256.509C207.512 257.554 206.692 259 206.425 260.591L190.788 356.66C190.629 357.633 190.684 358.629 190.948 359.579C191.212 360.529 191.68 361.41 192.319 362.162C192.957 362.913 193.752 363.516 194.647 363.93C195.542 364.344 196.516 364.558 197.502 364.558H287.308C288.629 364.562 289.916 364.986 290.98 365.77L292.683 367.031C293.856 367.895 295.274 368.363 296.731 368.367C314.076 363.79 332.312 363.79 349.656 368.367C350.551 368.37 351.436 368.195 352.262 367.852C353.089 367.51 353.839 367.007 354.469 366.373C355.547 365.295 356.986 364.654 358.508 364.574L447.779 359.87C448.747 359.819 449.693 359.562 450.554 359.116C451.415 358.67 452.17 358.046 452.77 357.284C453.369 356.522 453.799 355.641 454.031 354.7C454.262 353.758 454.29 352.779 454.111 351.826Z" fill="#CCCCCC"/>
<path d="M429.647 337.389C429.533 340.526 428.177 343.489 425.878 345.628C423.579 347.766 420.526 348.903 417.388 348.791C412.205 348.608 406.019 348.516 399.304 348.656C377.379 349.125 349.832 352.143 333.263 362.995C331.18 364.362 328.719 365.037 326.231 364.924C326.048 364.913 325.87 364.903 325.686 364.886C323.106 364.651 320.675 363.573 318.768 361.82C309.639 353.468 288.705 343.354 240.785 342.643C240.586 342.643 240.392 342.632 240.198 342.621C238.645 342.523 237.128 342.121 235.731 341.436C234.335 340.752 233.087 339.799 232.059 338.632C231.031 337.465 230.244 336.107 229.741 334.635C229.238 333.163 229.03 331.607 229.13 330.055L233.839 255.311L234.545 244.108L235.784 224.51C235.909 222.536 236.781 220.684 238.222 219.33C239.663 217.976 241.566 217.221 243.544 217.219H243.592L272.141 217.386C284.168 217.931 294.129 219.463 302.025 221.983C304.723 222.819 307.347 223.875 309.871 225.14C313.319 226.812 316.417 229.126 318.999 231.957C320.608 233.766 322.802 234.95 325.196 235.303C325.567 235.359 325.942 235.393 326.317 235.406C328.525 235.497 330.704 234.873 332.53 233.627C351.18 221.131 389.185 220.183 410.173 220.722C413.108 220.79 415.913 221.949 418.041 223.972C420.168 225.995 421.467 228.738 421.683 231.666L422.534 242.815L423.38 253.931L428.262 318.179L429.62 336.052C429.654 336.497 429.663 336.943 429.647 337.389Z" fill="#F2F2F2"/>
<path d="M247.887 243.521C265.091 238.032 284.284 239.485 300.583 247.218C305.233 249.412 309.625 252.118 313.678 255.283C314.824 256.183 316.455 254.573 315.297 253.664C300.327 242.053 281.518 236.537 262.648 238.225C257.428 238.692 252.274 239.727 247.278 241.313C245.88 241.759 246.478 243.97 247.887 243.521Z" fill="#3F3D56"/>
<path d="M342.555 256.171C358.55 247.764 377.704 245.93 395.095 250.703C400.053 252.06 404.845 253.965 409.381 256.383C410.681 257.076 411.839 255.101 410.537 254.406C393.962 245.562 374.065 243.526 355.965 248.456C350.915 249.834 346.031 251.758 341.399 254.194C340.094 254.88 341.25 256.857 342.555 256.171Z" fill="#3F3D56"/>
<path d="M342.555 271.436C358.55 263.029 377.704 261.195 395.095 265.968C400.053 267.325 404.845 269.23 409.381 271.648C410.681 272.341 411.839 270.365 410.537 269.671C393.962 260.826 374.065 258.79 355.965 263.721C350.916 265.098 346.031 267.022 341.399 269.459C340.094 270.145 341.25 272.122 342.555 271.436Z" fill="#3F3D56"/>
<path d="M352.633 286.005L352.324 286.228C352.428 286.15 352.537 286.077 352.648 286.007L352.633 286.005Z" fill="white"/>
<path d="M247.887 258.785C265.091 253.296 284.284 254.75 300.583 262.482C305.233 264.677 309.625 267.382 313.678 270.548C314.824 271.447 316.455 269.838 315.297 268.929C300.327 257.318 281.518 251.802 262.648 253.49C257.428 253.957 252.274 254.992 247.278 256.577C245.88 257.024 246.478 259.235 247.887 258.785Z" fill="#3F3D56"/>
<path d="M247.887 274.05C265.091 268.561 284.284 270.014 300.583 277.747C305.233 279.942 309.625 282.647 313.678 285.812C314.824 286.712 316.455 285.103 315.297 284.193C300.327 272.582 281.518 267.066 262.648 268.754C257.428 269.221 252.274 270.257 247.278 271.842C245.88 272.288 246.478 274.5 247.887 274.05Z" fill="#3F3D56"/>
<path d="M247.887 289.315C265.091 283.826 284.284 285.279 300.583 293.012C305.233 295.207 309.625 297.912 313.678 301.077C314.824 301.977 316.455 300.367 315.297 299.458C300.327 287.847 281.518 282.331 262.648 284.019C257.428 284.486 252.274 285.522 247.278 287.107C245.88 287.553 246.478 289.764 247.887 289.315Z" fill="#3F3D56"/>
<path d="M247.887 304.58C265.091 299.091 284.284 300.544 300.583 308.277C305.233 310.471 309.625 313.176 313.678 316.342C314.824 317.242 316.455 315.632 315.297 314.723C300.327 303.112 281.518 297.596 262.648 299.284C257.428 299.751 252.274 300.786 247.278 302.372C245.88 302.818 246.478 305.029 247.887 304.58Z" fill="#3F3D56"/>
<path d="M247.887 319.844C265.091 314.355 284.284 315.809 300.583 323.541C305.233 325.736 309.625 328.441 313.678 331.607C314.824 332.506 316.455 330.897 315.297 329.988C300.327 318.377 281.518 312.861 262.648 314.548C257.428 315.016 252.274 316.051 247.278 317.636C245.88 318.083 246.478 320.294 247.887 319.844Z" fill="#3F3D56"/>
<path d="M309.871 225.14V261.745C309.871 262.472 308.6 263.081 306.886 263.248C306.871 263.247 306.857 263.249 306.843 263.253C306.557 263.275 306.256 263.291 305.948 263.291C305.004 263.308 304.064 263.155 303.173 262.838C303.093 262.806 303.012 262.768 302.931 262.736C302.855 262.693 302.775 262.655 302.699 262.612C302.274 262.359 302.026 262.063 302.026 261.745V221.983C304.723 222.819 307.347 223.875 309.871 225.14Z" fill="#406752"/>
<path d="M326.316 233.63H325.195V364.159H326.316V233.63Z" fill="#E6E6E6"/>
</svg>
